HIERARCHY
ROOT mixamorig:Hips
{
	OFFSET -0.000008 104.274872 1.554316
	CHANNELS 6 Xposition Yposition Zposition Xrotation Yrotation Zrotation
	JOINT mixamorig:Spine
	{
		OFFSET -0.000005 10.181595 0.131519
		CHANNELS 6 Xposition Yposition Zposition Xrotation Yrotation Zrotation
		JOINT mixamorig:Spine1
		{
			OFFSET -0.000000 9.893959 -1.470707
			CHANNELS 6 Xposition Yposition Zposition Xrotation Yrotation Zrotation
			JOINT mixamorig:Spine2
			{
				OFFSET -0.000000 9.220757 -1.370641
				CHANNELS 6 Xposition Yposition Zposition Xrotation Yrotation Zrotation
				JOINT mixamorig:Neck
				{
					OFFSET 0.000001 16.740417 -2.049036
					CHANNELS 6 Xposition Yposition Zposition Xrotation Yrotation Zrotation
					JOINT mixamorig:Head
					{
						OFFSET 0.000000 9.617874 1.685006
						CHANNELS 6 Xposition Yposition Zposition Xrotation Yrotation Zrotation
						JOINT mixamorig:HeadTop_End
						{
							OFFSET 0.000002 22.037354 7.501101
							CHANNELS 6 Xposition Yposition Zposition Xrotation Yrotation Zrotation
							End Site
							{
								OFFSET 0.000168 2310.654297 -282.823242
							}
						}
					}
				}
				JOINT mixamorig:RightShoulder
				{
					OFFSET -4.569970 11.014908 -2.160885
					CHANNELS 6 Xposition Yposition Zposition Xrotation Yrotation Zrotation
					JOINT mixamorig:RightArm
					{
						OFFSET -10.592851 -0.524811 -2.232101
						CHANNELS 6 Xposition Yposition Zposition Xrotation Yrotation Zrotation
						JOINT mixamorig:RightForeArm
						{
							OFFSET -27.841511 0.000031 -0.000004
							CHANNELS 6 Xposition Yposition Zposition Xrotation Yrotation Zrotation
							JOINT mixamorig:RightHand
							{
								OFFSET -28.328831 -0.000015 0.000015
								CHANNELS 6 Xposition Yposition Zposition Xrotation Yrotation Zrotation
								JOINT mixamorig:RightHandThumb1
								{
									OFFSET -2.464806 -1.573990 2.681852
									CHANNELS 6 Xposition Yposition Zposition Xrotation Yrotation Zrotation
									JOINT mixamorig:RightHandThumb2
									{
										OFFSET -3.215179 -1.872803 1.924282
										CHANNELS 6 Xposition Yposition Zposition Xrotation Yrotation Zrotation
										JOINT mixamorig:RightHandThumb3
										{
											OFFSET -2.654831 -1.527969 1.512609
											CHANNELS 6 Xposition Yposition Zposition Xrotation Yrotation Zrotation
											JOINT mixamorig:RightHandThumb4
											{
												OFFSET -2.018814 -1.152008 1.108052
												CHANNELS 6 Xposition Yposition Zposition Xrotation Yrotation Zrotation
												End Site
												{
													OFFSET -188.809540 -114.533607 132.431396
												}
											}
										}
									}
								}
								JOINT mixamorig:RightHandIndex1
								{
									OFFSET -9.108284 -0.517868 2.259835
									CHANNELS 6 Xposition Yposition Zposition Xrotation Yrotation Zrotation
									JOINT mixamorig:RightHandIndex2
									{
										OFFSET -3.699989 0.000000 0.001215
										CHANNELS 6 Xposition Yposition Zposition Xrotation Yrotation Zrotation
										JOINT mixamorig:RightHandIndex3
										{
											OFFSET -2.850006 0.000031 -0.000522
											CHANNELS 6 Xposition Yposition Zposition Xrotation Yrotation Zrotation
											JOINT mixamorig:RightHandIndex4
											{
												OFFSET -2.772186 -0.000015 -0.000020
												CHANNELS 6 Xposition Yposition Zposition Xrotation Yrotation Zrotation
												End Site
												{
													OFFSET -277.218445 0.000000 -0.050231
												}
											}
										}
									}
								}
								JOINT mixamorig:RightHandMiddle1
								{
									OFFSET -9.532516 -0.000031 -0.000023
									CHANNELS 6 Xposition Yposition Zposition Xrotation Yrotation Zrotation
									JOINT mixamorig:RightHandMiddle2
									{
										OFFSET -3.700005 -0.000015 0.003713
										CHANNELS 6 Xposition Yposition Zposition Xrotation Yrotation Zrotation
										JOINT mixamorig:RightHandMiddle3
										{
											OFFSET -2.949974 0.000015 -0.002054
											CHANNELS 6 Xposition Yposition Zposition Xrotation Yrotation Zrotation
											JOINT mixamorig:RightHandMiddle4
											{
												OFFSET -2.946640 0.000000 -0.000156
												CHANNELS 6 Xposition Yposition Zposition Xrotation Yrotation Zrotation
												End Site
												{
													OFFSET -294.664337 0.000000 -0.113670
												}
											}
										}
									}
								}
								JOINT mixamorig:RightHandRing1
								{
									OFFSET -9.103600 -0.043076 -1.865134
									CHANNELS 6 Xposition Yposition Zposition Xrotation Yrotation Zrotation
									JOINT mixamorig:RightHandRing2
									{
										OFFSET -3.379288 0.000000 -0.001055
										CHANNELS 6 Xposition Yposition Zposition Xrotation Yrotation Zrotation
										JOINT mixamorig:RightHandRing3
										{
											OFFSET -2.889687 -0.000015 0.000379
											CHANNELS 6 Xposition Yposition Zposition Xrotation Yrotation Zrotation
											JOINT mixamorig:RightHandRing4
											{
												OFFSET -2.638809 -0.000015 0.000941
												CHANNELS 6 Xposition Yposition Zposition Xrotation Yrotation Zrotation
												End Site
												{
													OFFSET -263.880371 0.000000 0.516020
												}
											}
										}
									}
								}
								JOINT mixamorig:RightHandPinky1
								{
									OFFSET -8.076683 -0.486710 -3.806280
									CHANNELS 6 Xposition Yposition Zposition Xrotation Yrotation Zrotation
									JOINT mixamorig:RightHandPinky2
									{
										OFFSET -3.600014 -0.000015 -0.003747
										CHANNELS 6 Xposition Yposition Zposition Xrotation Yrotation Zrotation
										JOINT mixamorig:RightHandPinky3
										{
											OFFSET -2.099983 0.000000 -0.005739
											CHANNELS 6 Xposition Yposition Zposition Xrotation Yrotation Zrotation
											JOINT mixamorig:RightHandPinky4
											{
												OFFSET -2.115768 -0.000031 -0.003680
												CHANNELS 6 Xposition Yposition Zposition Xrotation Yrotation Zrotation
												End Site
												{
													OFFSET -211.577087 0.000000 -0.350686
												}
											}
										}
									}
								}
							}
						}
					}
				}
				JOINT mixamorig:LeftShoulder
				{
					OFFSET 4.570447 11.014725 -2.160855
					CHANNELS 6 Xposition Yposition Zposition Xrotation Yrotation Zrotation
					JOINT mixamorig:LeftArm
					{
						OFFSET 10.592371 -0.524597 -2.232119
						CHANNELS 6 Xposition Yposition Zposition Xrotation Yrotation Zrotation
						JOINT mixamorig:LeftForeArm
						{
							OFFSET 27.841532 -0.000031 0.000026
							CHANNELS 6 Xposition Yposition Zposition Xrotation Yrotation Zrotation
							JOINT mixamorig:LeftHand
							{
								OFFSET 28.328846 -0.000061 0.000022
								CHANNELS 6 Xposition Yposition Zposition Xrotation Yrotation Zrotation
								JOINT mixamorig:LeftHandThumb1
								{
									OFFSET 2.466141 -1.576172 2.681732
									CHANNELS 6 Xposition Yposition Zposition Xrotation Yrotation Zrotation
									JOINT mixamorig:LeftHandThumb2
									{
										OFFSET 3.217812 -1.872070 1.916482
										CHANNELS 6 Xposition Yposition Zposition Xrotation Yrotation Zrotation
										JOINT mixamorig:LeftHandThumb3
										{
											OFFSET 2.656029 -1.528778 1.514513
											CHANNELS 6 Xposition Yposition Zposition Xrotation Yrotation Zrotation
											JOINT mixamorig:LeftHandThumb4
											{
												OFFSET 2.020889 -1.154053 1.115139
												CHANNELS 6 Xposition Yposition Zposition Xrotation Yrotation Zrotation
												End Site
												{
													OFFSET 190.885437 -115.081749 130.048782
												}
											}
										}
									}
								}
								JOINT mixamorig:LeftHandIndex1
								{
									OFFSET 9.109314 -0.518021 2.259871
									CHANNELS 6 Xposition Yposition Zposition Xrotation Yrotation Zrotation
									JOINT mixamorig:LeftHandIndex2
									{
										OFFSET 3.699989 0.000000 -0.000322
										CHANNELS 6 Xposition Yposition Zposition Xrotation Yrotation Zrotation
										JOINT mixamorig:LeftHandIndex3
										{
											OFFSET 2.850006 0.000000 0.000352
											CHANNELS 6 Xposition Yposition Zposition Xrotation Yrotation Zrotation
											JOINT mixamorig:LeftHandIndex4
											{
												OFFSET 2.774864 -0.000031 -0.000027
												CHANNELS 6 Xposition Yposition Zposition Xrotation Yrotation Zrotation
												End Site
												{
													OFFSET 277.486267 0.000000 -0.009857
												}
											}
										}
									}
								}
								JOINT mixamorig:LeftHandMiddle1
								{
									OFFSET 9.533394 0.000061 0.000044
									CHANNELS 6 Xposition Yposition Zposition Xrotation Yrotation Zrotation
									JOINT mixamorig:LeftHandMiddle2
									{
										OFFSET 3.699989 -0.000015 -0.000231
										CHANNELS 6 Xposition Yposition Zposition Xrotation Yrotation Zrotation
										JOINT mixamorig:LeftHandMiddle3
										{
											OFFSET 2.949997 -0.000015 -0.000059
											CHANNELS 6 Xposition Yposition Zposition Xrotation Yrotation Zrotation
											JOINT mixamorig:LeftHandMiddle4
											{
												OFFSET 2.952896 0.000031 0.000063
												CHANNELS 6 Xposition Yposition Zposition Xrotation Yrotation Zrotation
												End Site
												{
													OFFSET 295.289337 0.000000 0.022810
												}
											}
										}
									}
								}
								JOINT mixamorig:LeftHandRing1
								{
									OFFSET 9.104523 -0.042999 -1.865074
									CHANNELS 6 Xposition Yposition Zposition Xrotation Yrotation Zrotation
									JOINT mixamorig:LeftHandRing2
									{
										OFFSET 3.150009 -0.000031 0.000043
										CHANNELS 6 Xposition Yposition Zposition Xrotation Yrotation Zrotation
										JOINT mixamorig:LeftHandRing3
										{
											OFFSET 2.949982 -0.000015 0.000040
											CHANNELS 6 Xposition Yposition Zposition Xrotation Yrotation Zrotation
											JOINT mixamorig:LeftHandRing4
											{
												OFFSET 2.644348 0.000000 0.000057
												CHANNELS 6 Xposition Yposition Zposition Xrotation Yrotation Zrotation
												End Site
												{
													OFFSET 264.434631 0.000000 0.012105
												}
											}
										}
									}
								}
								JOINT mixamorig:LeftHandPinky1
								{
									OFFSET 8.077789 -0.486847 -3.806259
									CHANNELS 6 Xposition Yposition Zposition Xrotation Yrotation Zrotation
									JOINT mixamorig:LeftHandPinky2
									{
										OFFSET 3.599953 0.000031 0.014727
										CHANNELS 6 Xposition Yposition Zposition Xrotation Yrotation Zrotation
										JOINT mixamorig:LeftHandPinky3
										{
											OFFSET 2.100021 0.000015 0.007705
											CHANNELS 6 Xposition Yposition Zposition Xrotation Yrotation Zrotation
											JOINT mixamorig:LeftHandPinky4
											{
												OFFSET 2.125504 0.000031 0.007517
												CHANNELS 6 Xposition Yposition Zposition Xrotation Yrotation Zrotation
												End Site
												{
													OFFSET 212.550781 0.000000 0.625752
												}
											}
										}
									}
								}
							}
						}
					}
				}
			}
		}
	}
	JOINT mixamorig:RightUpLeg
	{
		OFFSET -8.207787 -6.751648 -1.599560
		CHANNELS 6 Xposition Yposition Zposition Xrotation Yrotation Zrotation
		JOINT mixamorig:RightLeg
		{
			OFFSET -0.000002 -44.370117 0.345942
			CHANNELS 6 Xposition Yposition Zposition Xrotation Yrotation Zrotation
			JOINT mixamorig:RightFoot
			{
				OFFSET 0.000003 -44.423679 -3.043532
				CHANNELS 6 Xposition Yposition Zposition Xrotation Yrotation Zrotation
				JOINT mixamorig:RightToeBase
				{
					OFFSET -0.000002 -8.728671 10.710558
					CHANNELS 6 Xposition Yposition Zposition Xrotation Yrotation Zrotation
					JOINT mixamorig:RightToe_End
					{
						OFFSET -0.000001 -0.000679 9.278119
						CHANNELS 6 Xposition Yposition Zposition Xrotation Yrotation Zrotation
						End Site
						{
							OFFSET 0.000000 -0.067690 927.812134
						}
					}
				}
			}
		}
	}
	JOINT mixamorig:LeftUpLeg
	{
		OFFSET 8.207793 -6.751686 -1.599556
		CHANNELS 6 Xposition Yposition Zposition Xrotation Yrotation Zrotation
		JOINT mixamorig:LeftLeg
		{
			OFFSET -0.000004 -44.370014 0.346954
			CHANNELS 6 Xposition Yposition Zposition Xrotation Yrotation Zrotation
			JOINT mixamorig:LeftFoot
			{
				OFFSET -0.000001 -44.423672 -3.044401
				CHANNELS 6 Xposition Yposition Zposition Xrotation Yrotation Zrotation
				JOINT mixamorig:LeftToeBase
				{
					OFFSET -0.000002 -8.728669 10.710558
					CHANNELS 6 Xposition Yposition Zposition Xrotation Yrotation Zrotation
					JOINT mixamorig:LeftToe_End
					{
						OFFSET -0.000003 -0.000679 9.278133
						CHANNELS 6 Xposition Yposition Zposition Xrotation Yrotation Zrotation
						End Site
						{
							OFFSET 0.000000 -0.068021 927.813477
						}
					}
				}
			}
		}
	}
}
MOTION
Frames: 3
Frame Time: 0.033333
0.000006 104.270477 1.554256 0.000010 0.000003 -0.000113 -0.000005 10.181587 0.131522 0.000001 -0.000003 0.000084 -0.000000 9.893967 -1.470711 0.000001 0.000000 -0.000000 -0.000000 9.220802 -1.370642 0.000000 -0.000000 -0.000000 0.000001 16.740433 -2.049030 0.000000 -0.000000 -0.000000 0.000000 9.617859 1.685014 0.000000 0.000000 0.000000 0.000002 22.037384 7.501101 0.000000 -0.000000 0.000000 -4.569968 11.014880 -2.160881 0.000008 0.000001 -0.000038 -10.592877 -0.524757 -2.231917 74.196072 26.821161 -20.442299 -27.841528 0.000016 0.000542 -56.512654 107.911921 72.895986 -28.328821 0.000021 0.000026 -0.000321 -0.000045 0.000007 -2.464442 -1.573752 2.682326 -49.194748 -170.298896 -13.343989 -3.215280 -1.872593 1.924655 155.859630 30.878042 -1.342819 -2.654944 -1.527902 1.513082 146.245155 26.621547 -42.135423 -2.018831 -1.152029 1.108065 -0.000009 0.000000 0.000004 -9.108386 -0.517550 2.260100 95.262718 16.014628 -17.585495 -3.700076 0.000328 0.001486 91.914901 13.591333 -14.024401 -2.850083 0.000372 -0.000290 90.069069 10.639121 -10.650954 -2.772173 -0.000016 -0.000018 0.000001 -0.000001 0.000001 -9.532588 0.000267 0.000223 91.225830 14.996903 -15.461291 -3.700057 0.000329 0.003946 88.918258 12.100291 -11.782660 -2.950061 0.000328 -0.001833 88.883376 10.985938 -10.768240 -2.946641 0.000001 -0.000155 -0.000002 -0.000001 0.000001 -9.103709 -0.042761 -1.864882 89.858761 16.794569 -16.709390 -3.379317 0.000324 -0.000836 88.309619 10.396143 -10.112454 -2.889739 0.000352 0.000587 91.479756 6.855864 -7.081470 -2.638801 -0.000015 0.000942 0.000001 -0.000001 -0.000000 -8.076750 -0.486387 -3.806064 78.930677 16.388914 -13.398454 -3.600039 0.000270 -0.003557 80.715767 8.038840 -6.533451 -2.100017 0.000316 -0.005519 82.196730 4.548972 -3.780027 -2.115782 -0.000056 -0.003677 0.000001 0.000004 -0.000004 4.570446 11.014691 -2.160851 -0.000018 0.000010 -0.000021 10.592413 -0.524470 -2.232360 73.445345 -17.123580 12.816403 27.841835 0.000089 -0.000202 104.356445 -69.708351 83.791764 28.328827 -0.000029 0.000020 0.000025 -0.000087 -0.000001 2.465966 -1.576120 2.681916 -45.033076 168.423067 2.076415 3.217839 -1.871797 1.916389 156.658353 -27.532537 20.255508 2.656101 -1.528647 1.514447 139.842304 -27.924033 44.370780 2.020888 -1.154069 1.115142 0.000004 0.000003 0.000001 9.109392 -0.517845 2.259748 86.244997 -16.255529 15.224510 3.700032 0.000143 -0.000461 81.709410 -14.052705 12.183626 2.850038 0.000193 0.000199 81.238331 -12.201112 10.474028 2.774888 -0.000017 -0.000023 0.000001 0.000001 -0.000000 9.533468 0.000218 -0.000098 85.339491 -15.879259 14.643313 3.700029 0.000165 -0.000370 86.163233 -13.063268 12.220634 2.950074 0.000169 -0.000194 86.480044 -15.792909 14.865015 2.952875 -0.000017 0.000067 -0.000000 -0.000000 -0.000001 9.104593 -0.042841 -1.865231 83.988125 -15.140672 13.646646 3.150051 0.000188 -0.000094 89.549832 -12.934053 12.835505 2.950035 0.000184 -0.000077 91.043252 -14.044829 14.302107 2.644302 0.000031 0.000062 -0.000000 0.000000 0.000000 8.077846 -0.486726 -3.806399 73.869001 -17.780144 13.867570 3.600017 0.000178 0.014567 76.446592 -14.907118 12.178115 2.100033 0.000167 0.007547 78.994929 -13.779231 11.783296 2.125520 -0.000017 0.007515 0.000000 0.000000 -0.000001 -8.207786 -6.751667 -1.599560 -0.077001 -0.000003 0.000080 -0.000002 -44.370110 0.345938 0.153719 -0.000000 -0.000000 0.000000 -44.423679 -3.043532 -0.076700 0.000000 -0.000002 -0.000006 -8.728667 10.710559 -0.000009 -0.000000 -0.000000 -0.000001 -0.000679 9.278123 0.000000 -0.000000 -0.000000 8.207792 -6.751710 -1.599556 -0.074518 -0.000003 0.000081 -0.000002 -44.370014 0.346960 0.148822 0.000002 0.000000 -0.000001 -44.423664 -3.044403 -0.074314 0.000000 -0.000002 -0.000004 -8.728671 10.710558 0.000007 -0.000000 -0.000000 0.000000 -0.000680 9.278137 -0.000000 0.000000 -0.000001 
0.000006 104.270477 1.554256 0.000010 0.000003 -0.000113 -0.000005 10.181587 0.131522 0.000001 -0.000003 0.000084 -0.000000 9.893967 -1.470711 0.000001 0.000000 -0.000000 -0.000000 9.220802 -1.370642 0.000000 -0.000000 -0.000000 0.000001 16.740433 -2.049030 0.000000 -0.000000 -0.000000 0.000000 9.617859 1.685014 0.000000 0.000000 0.000000 0.000002 22.037384 7.501101 0.000000 -0.000000 0.000000 -4.569968 11.014880 -2.160881 0.000008 0.000001 -0.000038 -10.592879 -0.524762 -2.231914 74.855458 28.504638 -22.002268 -27.841515 0.000012 0.000539 -52.468550 105.446994 65.841903 -28.328850 0.000005 0.000030 -0.000321 -0.000044 0.000009 -2.464425 -1.573770 2.682322 -48.135874 -164.946937 -10.510578 -3.215289 -1.872598 1.924653 154.062198 29.790597 -7.207380 -2.654965 -1.527862 1.513075 142.570486 27.716945 -38.523329 -2.018823 -1.152009 1.108054 -0.000002 -0.000004 0.000000 -9.108384 -0.517550 2.260105 94.955482 16.372812 -17.881825 -3.700087 0.000324 0.001492 92.892349 13.280786 -13.937387 -2.850068 0.000358 -0.000285 91.708233 10.826027 -11.150713 -2.772160 -0.000014 -0.000018 -0.000001 0.000000 0.000002 -9.532595 0.000260 0.000233 90.398032 16.826625 -17.086611 -3.700079 0.000340 0.003955 90.822077 12.896374 -12.984286 -2.950066 0.000319 -0.001824 92.542411 11.866032 -12.393058 -2.946624 0.000004 -0.000153 -0.000003 -0.000000 0.000003 -9.103703 -0.042756 -1.864879 88.034322 18.500196 -17.842635 -3.379337 0.000320 -0.000819 90.138430 11.770120 -11.816224 -2.889754 0.000357 0.000640 97.210906 8.217559 -9.370725 -2.638823 -0.000017 0.000940 -0.000001 0.000002 -0.000001 -8.076776 -0.486400 -3.806064 77.850011 19.596958 -15.754272 -3.600059 0.000248 -0.003541 82.181362 11.690748 -9.880080 -2.100016 0.000314 -0.005502 88.833065 7.101790 -6.739586 -2.115780 -0.000044 -0.003678 0.000003 -0.000000 -0.000005 4.570446 11.014691 -2.160851 -0.000018 0.000010 -0.000021 10.592408 -0.524474 -2.232356 72.857723 -16.358803 12.110980 27.841827 0.000053 -0.000193 106.205897 -73.529008 89.723885 28.328817 -0.000029 0.000024 0.000024 -0.000090 -0.000000 2.466036 -1.576162 2.681914 -36.011288 164.651341 -20.184826 3.217847 -1.871787 1.916374 161.303291 -25.778541 26.779317 2.656088 -1.528663 1.514471 137.622643 -28.251677 55.040212 2.020880 -1.154072 1.115149 -0.000003 0.000007 0.000004 9.109382 -0.517862 2.259732 83.129973 -17.592069 15.614697 3.700024 0.000165 -0.000473 81.229370 -11.238583 9.660079 2.850013 0.000182 0.000206 80.934620 -8.483871 7.240089 2.774894 -0.000046 -0.000019 0.000000 -0.000001 0.000000 9.533465 0.000207 -0.000086 83.710867 -16.950009 15.198375 3.700037 0.000187 -0.000375 87.075302 -9.964461 9.468209 2.950054 0.000177 -0.000213 87.853213 -10.386162 10.008862 2.952849 -0.000016 0.000063 -0.000003 -0.000001 0.000000 9.104600 -0.042849 -1.865223 83.804290 -16.516157 14.841940 3.150060 0.000207 -0.000095 89.852860 -10.708311 10.682795 2.950030 0.000196 -0.000093 91.254107 -9.684379 9.899402 2.644333 0.000032 0.000058 0.000003 0.000000 -0.000000 8.077850 -0.486729 -3.806406 76.112582 -18.494423 15.002304 3.600009 0.000169 0.014578 78.551205 -15.398846 13.047406 2.100041 0.000184 0.007556 80.371280 -11.597070 10.211956 2.125496 -0.000015 0.007518 -0.000000 0.000001 0.000000 -8.207786 -6.751667 -1.599560 -0.077001 -0.000003 0.000080 -0.000002 -44.370110 0.345938 0.153719 -0.000000 -0.000000 0.000000 -44.423679 -3.043532 -0.076700 0.000000 -0.000002 -0.000006 -8.728667 10.710559 -0.000009 -0.000000 -0.000000 -0.000001 -0.000679 9.278123 0.000000 -0.000000 -0.000000 8.207792 -6.751710 -1.599556 -0.074518 -0.000003 0.000081 -0.000002 -44.370014 0.346960 0.148822 0.000002 0.000000 -0.000001 -44.423664 -3.044403 -0.074314 0.000000 -0.000002 -0.000004 -8.728671 10.710558 0.000007 -0.000000 -0.000000 0.000000 -0.000680 9.278137 -0.000000 0.000000 -0.000001 
0.000006 104.270477 1.554256 0.000010 0.000003 -0.000113 -0.000005 10.181587 0.131522 0.000001 -0.000003 0.000084 -0.000000 9.893967 -1.470711 0.000001 0.000000 -0.000000 -0.000000 9.220802 -1.370642 0.000000 -0.000000 -0.000000 0.000001 16.740433 -2.049030 0.000000 -0.000000 -0.000000 0.000000 9.617859 1.685014 0.000000 0.000000 0.000000 0.000002 22.037384 7.501101 0.000000 -0.000000 0.000000 -4.569968 11.014880 -2.160881 0.000008 0.000001 -0.000038 -10.592869 -0.524786 -2.231864 74.552218 36.586783 -28.247656 -27.841515 0.000015 0.000551 -47.860877 102.979274 58.296245 -28.328831 0.000020 0.000030 -0.000324 -0.000046 0.000008 -2.464410 -1.573782 2.682322 -48.034675 -163.429474 -10.333662 -3.215296 -1.872637 1.924676 153.344263 28.230301 -17.148699 -2.654952 -1.527871 1.513056 140.103422 28.241360 -38.167305 -2.018822 -1.151998 1.108065 -0.000006 0.000000 -0.000000 -9.108353 -0.517545 2.260109 95.408891 15.063308 -16.587763 -3.700067 0.000323 0.001481 92.828910 10.863283 -11.385831 -2.850078 0.000383 -0.000293 90.637006 7.543879 -7.627075 -2.772173 -0.000000 -0.000022 -0.000003 -0.000005 0.000001 -9.532575 0.000288 0.000209 90.745210 12.846818 -13.153103 -3.700044 0.000336 0.003962 91.710671 9.510038 -9.702364 -2.950034 0.000334 -0.001829 90.715827 9.278013 -9.387147 -2.946639 0.000014 -0.000153 0.000000 0.000000 -0.000001 -9.103666 -0.042742 -1.864887 89.280422 13.874686 -13.660459 -3.379344 0.000319 -0.000821 92.098674 9.929990 -10.316626 -2.889761 0.000359 0.000633 95.417934 7.501589 -8.294705 -2.638803 -0.000001 0.000945 -0.000004 -0.000000 0.000001 -8.076728 -0.486402 -3.806069 80.111350 15.282989 -12.746103 -3.600038 0.000257 -0.003552 83.002494 8.863647 -7.529046 -2.100011 0.000311 -0.005505 86.891781 5.390486 -4.898996 -2.115782 -0.000044 -0.003675 -0.000005 -0.000001 -0.000004 4.570446 11.014691 -2.160851 -0.000018 0.000010 -0.000021 10.592435 -0.524474 -2.232390 71.966090 -26.254730 19.221815 27.841843 0.000026 -0.000180 108.554307 -76.535077 95.289390 28.328821 -0.000027 0.000021 0.000021 -0.000088 0.000001 2.466162 -1.576164 2.681878 -15.523331 159.799734 -58.570593 3.217860 -1.871822 1.916401 158.212453 -23.806377 38.098122 2.656096 -1.528666 1.514470 136.539293 -28.656007 52.656216 2.020911 -1.154060 1.115150 -0.000003 0.000002 0.000001 9.109363 -0.517859 2.259741 84.861965 -19.515298 17.855817 3.700049 0.000145 -0.000462 82.777303 -12.519459 11.057660 2.850033 0.000179 0.000192 82.816925 -10.169164 8.972104 2.774889 -0.000017 -0.000028 -0.000000 -0.000001 -0.000001 9.533456 0.000197 -0.000086 83.290530 -18.093823 16.109870 3.700041 0.000175 -0.000374 86.139839 -11.186169 10.458536 2.950052 0.000189 -0.000209 87.283185 -11.235456 10.720806 2.952887 -0.000015 0.000064 -0.000001 0.000001 0.000001 9.104582 -0.042854 -1.865228 84.274808 -17.617484 15.964053 3.150057 0.000202 -0.000095 88.483291 -12.393061 12.073464 2.950023 0.000167 -0.000079 89.968147 -10.629326 10.625183 2.644329 0.000013 0.000058 -0.000001 -0.000000 0.000002 8.077834 -0.486733 -3.806396 76.479923 -19.612579 15.995977 3.600010 0.000160 0.014587 78.201377 -17.180605 14.433195 2.100039 0.000175 0.007532 80.763722 -12.843249 11.351990 2.125503 -0.000016 0.007513 0.000000 -0.000001 0.000000 -8.207786 -6.751667 -1.599560 -0.077001 -0.000003 0.000080 -0.000002 -44.370110 0.345938 0.153719 -0.000000 -0.000000 0.000000 -44.423679 -3.043532 -0.076700 0.000000 -0.000002 -0.000006 -8.728667 10.710559 -0.000009 -0.000000 -0.000000 -0.000001 -0.000679 9.278123 0.000000 -0.000000 -0.000000 8.207792 -6.751710 -1.599556 -0.074518 -0.000003 0.000081 -0.000002 -44.370014 0.346960 0.148822 0.000002 0.000000 -0.000001 -44.423664 -3.044403 -0.074314 0.000000 -0.000002 -0.000004 -8.728671 10.710558 0.000007 -0.000000 -0.000000 0.000000 -0.000680 9.278137 -0.000000 0.000000 -0.000001 
